<svg width="51" height="15" viewBox="0 0 51 15" fill="none" xmlns="http://www.w3.org/2000/svg">
<path d="M50.2071 8.20711C50.5976 7.81658 50.5976 7.18342 50.2071 6.79289L43.8431 0.428932C43.4526 0.0384078 42.8195 0.0384078 42.4289 0.428932C42.0384 0.819457 42.0384 1.45262 42.4289 1.84315L48.0858 7.5L42.4289 13.1569C42.0384 13.5474 42.0384 14.1805 42.4289 14.5711C42.8195 14.9616 43.4526 14.9616 43.8431 14.5711L50.2071 8.20711ZM0.5 7.5V8.5H2.54167V7.5V6.5H0.5V7.5ZM6.625 7.5V8.5H10.7083V7.5V6.5H6.625V7.5ZM14.7917 7.5V8.5H18.875V7.5V6.5H14.7917V7.5ZM22.9583 7.5V8.5H27.0417V7.5V6.5H22.9583V7.5ZM31.125 7.5V8.5H35.2083V7.5V6.5H31.125V7.5ZM39.2917 7.5V8.5H43.375V7.5V6.5H39.2917V7.5ZM47.4583 7.5V8.5H49.5V7.5V6.5H47.4583V7.5ZM50.2071 8.20711C50.5976 7.81658 50.5976 7.18342 50.2071 6.79289L43.8431 0.428932C43.4526 0.0384078 42.8195 0.0384078 42.4289 0.428932C42.0384 0.819457 42.0384 1.45262 42.4289 1.84315L48.0858 7.5L42.4289 13.1569C42.0384 13.5474 42.0384 14.1805 42.4289 14.5711C42.8195 14.9616 43.4526 14.9616 43.8431 14.5711L50.2071 8.20711ZM0.5 7.5V8.5H2.54167V7.5V6.5H0.5V7.5ZM6.625 7.5V8.5H10.7083V7.5V6.5H6.625V7.5ZM14.7917 7.5V8.5H18.875V7.5V6.5H14.7917V7.5ZM22.9583 7.5V8.5H27.0417V7.5V6.5H22.9583V7.5ZM31.125 7.5V8.5H35.2083V7.5V6.5H31.125V7.5ZM39.2917 7.5V8.5H43.375V7.5V6.5H39.2917V7.5ZM47.4583 7.5V8.5H49.5V7.5V6.5H47.4583V7.5Z" fill="#0A3725"/>
</svg>
