<svg width="40" height="40" viewBox="0 0 40 40" fill="none" xmlns="http://www.w3.org/2000/svg">
<path d="M21.6473 29.1763C21.6473 27.755 21.3674 26.3475 20.8234 25.0343C20.2795 23.7211 19.4822 22.5279 18.4772 21.5228C17.4721 20.5178 16.2789 19.7205 14.9657 19.1766C13.6525 18.6326 12.2451 18.3527 10.8237 18.3527C9.40229 18.3527 7.99482 18.6326 6.68163 19.1766C5.36844 19.7205 4.17525 20.5178 3.17018 21.5228C2.16511 22.5279 1.36784 23.7211 0.823903 25.0343C0.279962 26.3475 -1.24261e-07 27.755 0 29.1763H3.7385C3.7385 28.2459 3.92177 27.3246 4.27783 26.465C4.63389 25.6053 5.15578 24.8243 5.8137 24.1664C6.47162 23.5084 7.25268 22.9866 8.1123 22.6305C8.97191 22.2744 9.89324 22.0912 10.8237 22.0912C11.7541 22.0912 12.6754 22.2744 13.5351 22.6305C14.3947 22.9866 15.1757 23.5084 15.8336 24.1664C16.4916 24.8243 17.0135 25.6053 17.3695 26.465C17.7256 27.3246 17.9088 28.2459 17.9088 29.1763H21.6473Z" fill="#136443"/>
<path d="M39.1243 28.5806C39.1243 27.1983 38.852 25.8296 38.3231 24.5525C37.7941 23.2755 37.0188 22.1151 36.0414 21.1377C35.064 20.1603 33.9036 19.385 32.6266 18.856C31.3495 18.3271 29.9808 18.0548 28.5985 18.0548C27.2163 18.0548 25.8475 18.3271 24.5705 18.856C23.2934 19.385 22.1331 20.1603 21.1557 21.1377C20.1783 22.1151 19.403 23.2755 18.874 24.5525C18.345 25.8296 18.0728 27.1983 18.0728 28.5806H21.7084C21.7084 27.6758 21.8866 26.7798 22.2328 25.9438C22.5791 25.1079 23.0866 24.3483 23.7264 23.7085C24.3663 23.0687 25.1258 22.5612 25.9618 22.2149C26.7977 21.8686 27.6937 21.6904 28.5985 21.6904C29.5034 21.6904 30.3993 21.8686 31.2353 22.2149C32.0712 22.5612 32.8308 23.0687 33.4706 23.7085C34.1104 24.3483 34.618 25.1079 34.9642 25.9438C35.3105 26.7798 35.4887 27.6758 35.4887 28.5806H39.1243Z" fill="#136443"/>
<path d="M28.9958 18.8492C28.9958 17.6495 28.7595 16.4615 28.3004 15.3532C27.8413 14.2448 27.1683 13.2377 26.32 12.3894C25.4717 11.5411 24.4646 10.8681 23.3562 10.409C22.2478 9.94992 21.0599 9.71362 19.8602 9.71362C18.6605 9.71362 17.4725 9.94992 16.3642 10.409C15.2558 10.8681 14.2487 11.5411 13.4004 12.3894C12.552 13.2377 11.8791 14.2448 11.42 15.3532C10.9609 16.4615 10.7246 17.6495 10.7246 18.8492H13.88C13.88 18.0639 14.0347 17.2862 14.3353 16.5607C14.6358 15.8352 15.0763 15.1759 15.6316 14.6206C16.1869 14.0653 16.8461 13.6248 17.5717 13.3243C18.2972 13.0237 19.0749 12.8691 19.8602 12.8691C20.6455 12.8691 21.4231 13.0237 22.1487 13.3243C22.8742 13.6248 23.5335 14.0653 24.0888 14.6206C24.6441 15.1759 25.0846 15.8352 25.3851 16.5607C25.6857 17.2862 25.8403 18.0639 25.8403 18.8492H28.9958Z" fill="#136443"/>
<path d="M38.3149 18.3476C38.3149 15.9381 37.8403 13.5523 36.9182 11.3262C35.9961 9.10013 34.6446 7.07748 32.9409 5.37372C31.2371 3.66996 29.2145 2.31847 26.9884 1.3964C24.7624 0.474337 22.3765 -0.000244246 19.967 -0.000244141C17.5575 -0.000244035 15.1716 0.474337 12.9456 1.3964C10.7195 2.31847 8.69686 3.66996 6.9931 5.37372C5.28935 7.07748 3.93785 9.10013 3.01579 11.3262C2.09372 13.5523 1.61914 15.9381 1.61914 18.3476H6.0275C6.0275 16.5171 6.38806 14.7044 7.08858 13.0132C7.78911 11.322 8.81588 9.7853 10.1103 8.4909C11.4047 7.1965 12.9414 6.16972 14.6326 5.4692C16.3238 4.76867 18.1364 4.40812 19.967 4.40812C21.7976 4.40812 23.6102 4.76867 25.3014 5.4692C26.9926 6.16972 28.5293 7.1965 29.8237 8.4909C31.1181 9.7853 32.1449 11.322 32.8454 13.0132C33.5459 14.7044 33.9065 16.5171 33.9065 18.3476H38.3149Z" fill="#E58D38"/>
</svg>
