<svg width="33" height="33" viewBox="0 0 33 33" fill="none" xmlns="http://www.w3.org/2000/svg">
<path d="M16.3947 0.883504C16.9187 0.883504 17.4347 0.917504 17.9147 0.997504C18.3876 1.05842 18.8541 1.1615 19.3087 1.3055C19.762 1.4415 20.2114 1.61684 20.6567 1.8315C21.0907 2.0375 21.5367 2.2895 21.9827 2.5635C22.7367 3.0435 23.4787 3.4315 24.2347 3.7415C25.7226 4.33839 27.2966 4.69288 28.8967 4.7915C29.706 4.8515 30.544 4.88217 31.4107 4.8835V12.8835C31.4107 14.4022 31.2167 15.8462 30.8287 17.2155C30.4559 18.5679 29.9263 19.8721 29.2507 21.1015C28.578 22.3293 27.7819 23.4852 26.8747 24.5515C25.9542 25.6425 24.957 26.6665 23.8907 27.6155C22.8094 28.5662 21.672 29.4511 20.4847 30.2655C19.2954 31.0922 18.0994 31.8542 16.8967 32.5515L16.4167 32.8375L15.9367 32.5515C14.703 31.8375 13.4981 31.0749 12.3247 30.2655C11.131 29.4598 9.99311 28.5745 8.9187 27.6155C7.85309 26.6664 6.85656 25.6425 5.9367 24.5515C5.0326 23.4802 4.23296 22.325 3.5487 21.1015C2.88522 19.8663 2.35619 18.5636 1.9707 17.2155C1.58282 15.8045 1.39036 14.3469 1.3987 12.8835V4.8835C2.26536 4.88217 3.10403 4.8515 3.9147 4.7915C4.71414 4.73716 5.50838 4.62284 6.2907 4.4495C7.0567 4.2775 7.8227 4.0495 8.5767 3.7415C9.35891 3.42532 10.109 3.03486 10.8167 2.5755C11.6967 2.0035 12.5887 1.5815 13.4687 1.3035C14.4165 1.01328 15.4035 0.871604 16.3947 0.883504ZM29.3987 6.8495C27.8848 6.77541 26.385 6.52231 24.9307 6.0955C23.4846 5.663 22.1069 5.02804 20.8387 4.2095C20.1807 3.77872 19.4667 3.44023 18.7167 3.2035C17.9671 2.97742 17.1877 2.8655 16.4047 2.8715C15.6159 2.8667 14.8307 2.97857 14.0747 3.2035C13.3238 3.43318 12.6108 3.77214 11.9587 4.2095C10.6878 5.03169 9.30674 5.66938 7.8567 6.1035C6.43936 6.5155 4.95336 6.7675 3.3987 6.8595V12.8935C3.3987 14.2175 3.5707 15.4895 3.9147 16.7095C4.26546 17.9208 4.74836 19.0898 5.3547 20.1955C5.96855 21.3126 6.69212 22.3658 7.5147 23.3395C8.3487 24.3215 9.2387 25.2355 10.1987 26.1035C11.1587 26.9715 12.1647 27.7755 13.2167 28.5155C14.2794 29.2568 15.342 29.9348 16.4047 30.5495C17.4926 29.9173 18.5529 29.2386 19.5827 28.5155C20.6429 27.7775 21.6543 26.9719 22.6107 26.1035C23.5707 25.2355 24.4627 24.3215 25.2967 23.3395C26.1193 22.3658 26.8428 21.3126 27.4567 20.1955C28.06 19.091 28.5357 17.9215 28.8747 16.7095C29.2295 15.4688 29.406 14.1839 29.3987 12.8935V6.8495Z" fill="#1A1A1A"/>
<path fill-rule="evenodd" clip-rule="evenodd" d="M23.8515 10.3009L22.9715 9.54492L22.1595 9.61492L13.4395 19.9109L10.4695 15.6709L9.66947 15.5349L8.74347 16.1969L8.60547 16.9969L12.4235 22.4489L12.8575 22.6889L13.7715 22.7449L14.2395 22.5409L23.9095 11.1109L23.8515 10.3009Z" fill="#1A1A1A"/>
</svg>
