<svg width="33" height="33" viewBox="0 0 33 33" fill="none" xmlns="http://www.w3.org/2000/svg">
<path d="M16.9775 10.4358C17.6442 10.2198 18.1788 9.71183 18.4322 9.0625L24.0762 14.7078C23.7541 14.8343 23.4639 15.0304 23.2265 15.2821C22.9891 15.5338 22.8102 15.8349 22.7028 16.1638L16.9775 10.4358ZM22.7042 17.6025L16.9762 23.3292C17.6428 23.5452 18.1788 24.0532 18.4322 24.7025L24.0762 19.0572C23.7541 18.9307 23.4639 18.7346 23.2265 18.4829C22.9891 18.2312 22.8102 17.9301 22.7028 17.6012M15.5375 23.3292L9.81083 17.6012C9.59483 18.2678 9.08817 18.8038 8.4375 19.0572L14.0828 24.7012C14.3362 24.0518 14.8708 23.5452 15.5388 23.3278M15.5375 10.4358L9.81083 16.1638C9.70343 15.8349 9.5246 15.5338 9.28718 15.2821C9.04975 15.0304 8.7596 14.8343 8.4375 14.7078L14.0828 9.06383C14.3362 9.71317 14.8708 10.2198 15.5388 10.4372" fill="#1A1A1A"/>
<path fill-rule="evenodd" clip-rule="evenodd" d="M16.2578 6.88281C15.9042 6.88281 15.5651 7.02329 15.315 7.27334C15.065 7.52339 14.9245 7.86252 14.9245 8.21615C14.9245 8.56977 15.065 8.90891 15.315 9.15895C15.5651 9.409 15.9042 9.54948 16.2578 9.54948C16.6114 9.54948 16.9506 9.409 17.2006 9.15895C17.4507 8.90891 17.5911 8.56977 17.5911 8.21615C17.5911 7.86252 17.4507 7.52339 17.2006 7.27334C16.9506 7.02329 16.6114 6.88281 16.2578 6.88281ZM12.9245 8.21615C12.9245 7.33209 13.2757 6.48424 13.9008 5.85912C14.5259 5.234 15.3738 4.88281 16.2578 4.88281C17.1419 4.88281 17.9897 5.234 18.6148 5.85912C19.24 6.48424 19.5911 7.33209 19.5911 8.21615C19.5911 9.1002 19.24 9.94805 18.6148 10.5732C17.9897 11.1983 17.1419 11.5495 16.2578 11.5495C15.3738 11.5495 14.5259 11.1983 13.9008 10.5732C13.2757 9.94805 12.9245 9.1002 12.9245 8.21615ZM16.2578 24.2161C15.9042 24.2161 15.5651 24.3566 15.315 24.6067C15.065 24.8567 14.9245 25.1959 14.9245 25.5495C14.9245 25.9031 15.065 26.2422 15.315 26.4923C15.5651 26.7423 15.9042 26.8828 16.2578 26.8828C16.6114 26.8828 16.9506 26.7423 17.2006 26.4923C17.4507 26.2422 17.5911 25.9031 17.5911 25.5495C17.5911 25.1959 17.4507 24.8567 17.2006 24.6067C16.9506 24.3566 16.6114 24.2161 16.2578 24.2161ZM12.9245 25.5495C12.9245 24.6654 13.2757 23.8176 13.9008 23.1925C14.5259 22.5673 15.3738 22.2161 16.2578 22.2161C17.1419 22.2161 17.9897 22.5673 18.6148 23.1925C19.24 23.8176 19.5911 24.6654 19.5911 25.5495C19.5911 26.4335 19.24 27.2814 18.6148 27.9065C17.9897 28.5316 17.1419 28.8828 16.2578 28.8828C15.3738 28.8828 14.5259 28.5316 13.9008 27.9065C13.2757 27.2814 12.9245 26.4335 12.9245 25.5495ZM7.59115 15.5495C7.23752 15.5495 6.89839 15.69 6.64834 15.94C6.39829 16.1901 6.25781 16.5292 6.25781 16.8828C6.25781 17.2364 6.39829 17.5756 6.64834 17.8256C6.89839 18.0757 7.23752 18.2161 7.59115 18.2161C7.94477 18.2161 8.28391 18.0757 8.53395 17.8256C8.784 17.5756 8.92448 17.2364 8.92448 16.8828C8.92448 16.5292 8.784 16.1901 8.53395 15.94C8.28391 15.69 7.94477 15.5495 7.59115 15.5495ZM4.25781 16.8828C4.25781 15.9988 4.609 15.1509 5.23412 14.5258C5.85924 13.9007 6.70709 13.5495 7.59115 13.5495C8.4752 13.5495 9.32305 13.9007 9.94817 14.5258C10.5733 15.1509 10.9245 15.9988 10.9245 16.8828C10.9245 17.7669 10.5733 18.6147 9.94817 19.2398C9.32305 19.865 8.4752 20.2161 7.59115 20.2161C6.70709 20.2161 5.85924 19.865 5.23412 19.2398C4.609 18.6147 4.25781 17.7669 4.25781 16.8828ZM24.9245 15.5495C24.5709 15.5495 24.2317 15.69 23.9817 15.94C23.7316 16.1901 23.5911 16.5292 23.5911 16.8828C23.5911 17.2364 23.7316 17.5756 23.9817 17.8256C24.2317 18.0757 24.5709 18.2161 24.9245 18.2161C25.2781 18.2161 25.6172 18.0757 25.8673 17.8256C26.1173 17.5756 26.2578 17.2364 26.2578 16.8828C26.2578 16.5292 26.1173 16.1901 25.8673 15.94C25.6172 15.69 25.2781 15.5495 24.9245 15.5495ZM21.5911 16.8828C21.5911 15.9988 21.9423 15.1509 22.5675 14.5258C23.1926 13.9007 24.0404 13.5495 24.9245 13.5495C25.8085 13.5495 26.6564 13.9007 27.2815 14.5258C27.9066 15.1509 28.2578 15.9988 28.2578 16.8828C28.2578 17.7669 27.9066 18.6147 27.2815 19.2398C26.6564 19.865 25.8085 20.2161 24.9245 20.2161C24.0404 20.2161 23.1926 19.865 22.5675 19.2398C21.9423 18.6147 21.5911 17.7669 21.5911 16.8828Z" fill="#1A1A1A"/>
</svg>
