<svg width="19" height="14" viewBox="0 0 19 14" fill="none" xmlns="http://www.w3.org/2000/svg">
<path d="M12.207 0.636343L17.864 6.29334C18.0515 6.48087 18.1568 6.73518 18.1568 7.00034C18.1568 7.26551 18.0515 7.51981 17.864 7.70734L12.207 13.3643C12.0184 13.5465 11.7658 13.6473 11.5036 13.645C11.2414 13.6427 10.9906 13.5376 10.8052 13.3522C10.6198 13.1668 10.5146 12.9159 10.5123 12.6537C10.51 12.3915 10.6108 12.1389 10.793 11.9503L14.743 8.00034H1.5C1.23478 8.00034 0.98043 7.89499 0.792893 7.70745C0.605357 7.51991 0.5 7.26556 0.5 7.00034C0.5 6.73513 0.605357 6.48077 0.792893 6.29324C0.98043 6.1057 1.23478 6.00034 1.5 6.00034H14.743L10.793 2.05034C10.6975 1.9581 10.6213 1.84775 10.5689 1.72575C10.5165 1.60374 10.4889 1.47252 10.4877 1.33974C10.4866 1.20696 10.5119 1.07529 10.5622 0.952389C10.6125 0.829492 10.6867 0.717841 10.7806 0.623948C10.8745 0.530055 10.9861 0.455802 11.109 0.405521C11.2319 0.355241 11.3636 0.329939 11.4964 0.331092C11.6292 0.332246 11.7604 0.359833 11.8824 0.412242C12.0044 0.464651 12.1148 0.540833 12.207 0.636343Z" fill="#136443"/>
</svg>
