<svg width="15" height="12" viewBox="0 0 15 12" fill="none" xmlns="http://www.w3.org/2000/svg">
<path d="M9.87888 0.726226L14.4147 5.26202C14.565 5.41238 14.6494 5.61628 14.6494 5.82889C14.6494 6.0415 14.565 6.24541 14.4147 6.39577L9.87888 10.9316C9.72766 11.0776 9.52512 11.1584 9.31489 11.1566C9.10466 11.1548 8.90356 11.0705 8.7549 10.9218C8.60624 10.7731 8.52192 10.572 8.52009 10.3618C8.51826 10.1516 8.59908 9.94903 8.74513 9.79781L11.9123 6.63069H1.29399C1.08134 6.63069 0.877397 6.54622 0.72703 6.39585C0.576663 6.24548 0.492188 6.04154 0.492188 5.82889C0.492188 5.61624 0.576663 5.4123 0.72703 5.26193C0.877397 5.11157 1.08134 5.02709 1.29399 5.02709H11.9123L8.74513 1.85997C8.66855 1.78601 8.60747 1.69754 8.56545 1.59971C8.52343 1.50189 8.50131 1.39668 8.50038 1.29021C8.49946 1.18375 8.51975 1.07817 8.56006 0.979632C8.60038 0.881094 8.65991 0.791571 8.7352 0.716288C8.81048 0.641005 8.9 0.581468 8.99854 0.541153C9.09708 0.500838 9.20266 0.48055 9.30912 0.481476C9.41558 0.482401 9.5208 0.504519 9.61862 0.546541C9.71644 0.588563 9.80492 0.649646 9.87888 0.726226Z" fill="#1A1A1A"/>
</svg>
