<svg width="16" height="18" viewBox="0 0 16 18" fill="none" xmlns="http://www.w3.org/2000/svg">
<path d="M8 0.666992C8.74333 0.666992 9.675 0.761159 10.4508 1.02366C10.8375 1.15366 11.2425 1.34449 11.5642 1.63449C11.9025 1.93866 12.1667 2.37366 12.1667 2.92866C12.1667 3.46366 11.9217 3.90533 11.6275 4.23366C11.4624 4.41562 11.2771 4.57807 11.075 4.71783C13.5625 5.90366 15.5 8.44616 15.5 11.5003C15.5 13.6303 14.65 15.1553 13.195 16.1045C11.7992 17.0145 9.94167 17.3337 8 17.3337C6.05833 17.3337 4.2 17.0145 2.805 16.1045C1.35 15.1553 0.5 13.6295 0.5 11.5003C0.5 8.44616 2.4375 5.90366 4.925 4.71783C4.72298 4.57834 4.5376 4.41617 4.3725 4.23449C4.07833 3.90449 3.83333 3.46283 3.83333 2.92783C3.83333 2.37283 4.0975 1.93783 4.43583 1.63366C4.7575 1.34366 5.1625 1.15283 5.54917 1.02283C6.325 0.761159 7.25667 0.666992 8 0.666992ZM8 5.66699C5.09333 5.66699 2.16667 8.24366 2.16667 11.5003C2.16667 13.1203 2.775 14.0953 3.71583 14.7087C4.71583 15.3612 6.19167 15.667 8 15.667C9.80833 15.667 11.2833 15.3612 12.2842 14.7087C13.225 14.0953 13.8333 13.1203 13.8333 11.5003C13.8333 8.24366 10.9067 5.66699 8 5.66699ZM9.6225 7.83866C9.82001 7.93753 9.97019 8.11077 10.04 8.32031C10.1099 8.52985 10.0937 8.75855 9.995 8.95616L9.55667 9.83366H9.66667C9.88768 9.83366 10.0996 9.92146 10.2559 10.0777C10.4122 10.234 10.5 10.446 10.5 10.667C10.5 10.888 10.4122 11.1 10.2559 11.2562C10.0996 11.4125 9.88768 11.5003 9.66667 11.5003H8.83333V11.917H9.66667C9.88768 11.917 10.0996 12.0048 10.2559 12.1611C10.4122 12.3174 10.5 12.5293 10.5 12.7503C10.5 12.9713 10.4122 13.1833 10.2559 13.3396C10.0996 13.4959 9.88768 13.5837 9.66667 13.5837H8.83333V14.0003C8.83333 14.2213 8.74554 14.4333 8.58926 14.5896C8.43297 14.7459 8.22101 14.8337 8 14.8337C7.77899 14.8337 7.56702 14.7459 7.41074 14.5896C7.25446 14.4333 7.16667 14.2213 7.16667 14.0003V13.5837H6.33333C6.11232 13.5837 5.90036 13.4959 5.74408 13.3396C5.5878 13.1833 5.5 12.9713 5.5 12.7503C5.5 12.5293 5.5878 12.3174 5.74408 12.1611C5.90036 12.0048 6.11232 11.917 6.33333 11.917H7.16667V11.5003H6.33333C6.11232 11.5003 5.90036 11.4125 5.74408 11.2562C5.5878 11.1 5.5 10.888 5.5 10.667C5.5 10.446 5.5878 10.234 5.74408 10.0777C5.90036 9.92146 6.11232 9.83366 6.33333 9.83366H6.44333L6.005 8.95616C5.95203 8.85793 5.91933 8.75006 5.90884 8.63895C5.89835 8.52784 5.91028 8.41576 5.94394 8.30935C5.97759 8.20294 6.03227 8.10438 6.10474 8.0195C6.17721 7.93463 6.26598 7.86518 6.36581 7.81527C6.46563 7.76536 6.57445 7.73601 6.68583 7.72896C6.79721 7.72191 6.90887 7.7373 7.01419 7.77422C7.11951 7.81115 7.21634 7.86885 7.29893 7.9439C7.38152 8.01896 7.4482 8.10984 7.495 8.21116L8 9.21949L8.505 8.21116C8.60387 8.01365 8.77711 7.86347 8.98665 7.79362C9.1962 7.72378 9.4249 7.73997 9.6225 7.83866ZM8 2.33366C7.3625 2.33366 6.6275 2.41783 6.0825 2.60199C5.8075 2.69533 5.63833 2.79366 5.55083 2.87283L5.5075 2.91866C5.50477 2.9224 5.50227 2.92629 5.5 2.93033L5.50583 2.95699C5.53036 3.01927 5.56721 3.07596 5.61417 3.12366C5.73083 3.25366 5.92667 3.40199 6.19917 3.54283C6.74917 3.82783 7.45167 4.00033 8 4.00033C8.54833 4.00033 9.25167 3.82783 9.80083 3.54283C10.0733 3.40199 10.2683 3.25366 10.3858 3.12283C10.4327 3.07537 10.4695 3.01897 10.4942 2.95699L10.5 2.93033L10.4767 2.90033C10.4679 2.89073 10.4588 2.88156 10.4492 2.87283C10.3617 2.79449 10.1925 2.69533 9.9175 2.60199C9.3725 2.41866 8.6375 2.33366 8 2.33366Z" fill="#09244B"/>
</svg>
