<svg width="33" height="33" viewBox="0 0 33 33" fill="none" xmlns="http://www.w3.org/2000/svg">
<g clip-path="url(#clip0_1377_9132)">
<path fill-rule="evenodd" clip-rule="evenodd" d="M14.8913 4.88423C14.9693 5.22901 14.9073 5.59066 14.7188 5.8897C14.5302 6.18873 14.2307 6.40066 13.886 6.4789C13.6243 6.53834 13.365 6.60773 13.1086 6.6869C12.9413 6.73855 12.7655 6.75675 12.5911 6.74044C12.4168 6.72414 12.2474 6.67366 12.0926 6.59188C11.9377 6.5101 11.8005 6.39863 11.6888 6.26383C11.577 6.12903 11.4929 5.97354 11.4413 5.80623C11.3896 5.63893 11.3714 5.46309 11.3877 5.28875C11.404 5.11442 11.4545 4.945 11.5363 4.79017C11.6181 4.63535 11.7296 4.49814 11.8644 4.3864C11.9992 4.27465 12.1547 4.19055 12.322 4.1389C12.642 4.04023 12.9673 3.95223 13.2953 3.8789C13.4661 3.84005 13.6429 3.83525 13.8156 3.86476C13.9882 3.89426 14.1534 3.95751 14.3016 4.05087C14.4498 4.14423 14.5782 4.26588 14.6794 4.40888C14.7805 4.55187 14.8526 4.7134 14.8913 4.88423ZM17.6246 4.88423C17.7029 4.5395 17.9148 4.23994 18.2138 4.05142C18.5129 3.8629 18.8745 3.80085 19.2193 3.8789C25.158 5.22556 29.5926 10.5349 29.5926 16.8816C29.5926 24.2456 23.622 30.2149 16.2593 30.2149C9.91129 30.2149 4.60195 25.7816 3.25529 19.8429C3.18616 19.5015 3.25336 19.1467 3.44249 18.8542C3.63162 18.5618 3.92768 18.3549 4.26735 18.2779C4.60702 18.2009 4.96334 18.2599 5.26009 18.4422C5.55684 18.6246 5.77047 18.9158 5.85529 19.2536C6.27957 21.1119 7.19409 22.8226 8.50369 24.2077C9.81328 25.5927 11.4701 26.6016 13.3018 27.1292C15.1335 27.6568 17.0731 27.684 18.9188 27.2078C20.7645 26.7317 22.449 25.7696 23.7968 24.4218C25.1447 23.0739 26.1067 21.3895 26.5829 19.5438C27.059 17.698 27.0319 15.7584 26.5042 13.9267C25.9766 12.0951 24.9678 10.4382 23.5827 9.12863C22.1977 7.81903 20.487 6.90452 18.6286 6.48023C18.2838 6.40171 17.9844 6.18946 17.7961 5.89015C17.6078 5.59085 17.5461 5.22901 17.6246 4.88423ZM9.07662 7.1749C9.19586 7.30329 9.28863 7.45392 9.34962 7.61818C9.41061 7.78244 9.43862 7.95712 9.43206 8.13221C9.42549 8.30731 9.38448 8.4794 9.31137 8.63863C9.23826 8.79787 9.13447 8.94113 9.00595 9.06023C8.80862 9.24157 8.61929 9.43223 8.43662 9.62823C8.19441 9.88026 7.86291 10.0271 7.5135 10.0371C7.1641 10.0471 6.82473 9.91954 6.56847 9.68181C6.31221 9.44408 6.15956 9.11523 6.14337 8.76605C6.12719 8.41688 6.24878 8.07531 6.48195 7.8149C6.70862 7.56957 6.94595 7.33223 7.19129 7.10423C7.31967 6.98499 7.47031 6.89222 7.63457 6.83123C7.79883 6.77025 7.9735 6.74223 8.1486 6.7488C8.3237 6.75536 8.49578 6.79637 8.65502 6.86948C8.81426 6.9426 8.95752 7.04638 9.07662 7.1749ZM16.258 8.88157C16.6116 8.88157 16.9507 9.02204 17.2008 9.27209C17.4508 9.52214 17.5913 9.86128 17.5913 10.2149V16.3296L21.2006 19.9389C21.4435 20.1904 21.5779 20.5272 21.5749 20.8768C21.5718 21.2264 21.4316 21.5608 21.1844 21.808C20.9372 22.0552 20.6028 22.1954 20.2532 22.1985C19.9036 22.2015 19.5668 22.0671 19.3153 21.8242L15.3153 17.8242C15.0652 17.5742 14.9247 17.2352 14.9246 16.8816V10.2149C14.9246 9.86128 15.0651 9.52214 15.3151 9.27209C15.5652 9.02204 15.9043 8.88157 16.258 8.88157ZM5.18195 12.0656C5.51981 12.1698 5.80245 12.4039 5.96773 12.7164C6.133 13.029 6.16738 13.3943 6.06329 13.7322C5.98413 13.9886 5.91475 14.2479 5.85529 14.5096C5.77047 14.8474 5.55684 15.1386 5.26009 15.3209C4.96334 15.5032 4.60702 15.5622 4.26735 15.4852C3.92768 15.4082 3.63162 15.2014 3.44249 14.9089C3.25336 14.6164 3.18616 14.2616 3.25529 13.9202C3.32995 13.5909 3.41662 13.2669 3.51529 12.9469C3.61947 12.609 3.85358 12.3264 4.16613 12.1611C4.47867 11.9959 4.84407 11.9615 5.18195 12.0656Z" fill="#1A1A1A"/>
</g>
<defs>
<clipPath id="clip0_1377_9132">
<rect width="32" height="32" fill="white" transform="translate(0.257812 0.882812)"/>
</clipPath>
</defs>
</svg>
