<svg width="73" height="72" viewBox="0 0 73 72" fill="none" xmlns="http://www.w3.org/2000/svg">
<rect x="0.166504" width="72" height="72" rx="36" fill="#FEF2F2"/>
<g clip-path="url(#clip0_1500_516)">
<path opacity="0.2" d="M30.1675 35.9981C30.1675 34.0202 30.754 32.0868 31.8528 30.4423C32.9516 28.7979 34.5134 27.5161 36.3407 26.7593C38.1679 26.0024 40.1786 25.8043 42.1184 26.1902C44.0582 26.5761 45.8401 27.5285 47.2386 28.927C48.6371 30.3255 49.5895 32.1073 49.9754 34.0471C50.3612 35.987 50.1632 37.9976 49.4063 39.8249C48.6494 41.6521 47.3677 43.2139 45.7232 44.3127C44.0787 45.4116 42.1453 45.9981 40.1675 45.9981H29.1675C28.1748 45.9971 27.1937 45.785 26.2892 45.3758C25.3847 44.9667 24.5776 44.3698 23.9215 43.6249C23.2653 42.88 22.7751 42.004 22.4834 41.0551C22.1917 40.1063 22.1051 39.1062 22.2294 38.1213C22.3538 37.1364 22.6862 36.1892 23.2046 35.3426C23.723 34.496 24.4155 33.7694 25.2362 33.2109C26.0569 32.6524 26.987 32.2749 27.9648 32.1033C28.9425 31.9318 29.9456 31.9702 30.9074 32.216" fill="#FF6B6B"/>
<path d="M32.1656 45.998H29.1656C28.1729 45.9971 27.1917 45.785 26.2872 45.3758C25.3828 44.9667 24.5757 44.3698 23.9195 43.6249C23.2634 42.88 22.7732 42.004 22.4814 41.0551C22.1897 40.1063 22.1032 39.1062 22.2275 38.1213C22.3518 37.1364 22.6842 36.1892 23.2026 35.3426C23.721 34.496 24.4135 33.7694 25.2342 33.2109C26.0549 32.6524 26.985 32.2749 27.9628 32.1033C28.9406 31.9318 29.9437 31.9702 30.9055 32.216" stroke="#FF6B6B" stroke-width="1.5" stroke-linecap="round" stroke-linejoin="round"/>
<path d="M30.1646 35.998C30.1647 34.4136 30.5414 32.8518 31.2635 31.4415C31.9856 30.0312 33.0325 28.8126 34.3179 27.8862C35.6034 26.9599 37.0905 26.3522 38.6569 26.1133C40.2232 25.8744 41.8239 26.0112 43.3271 26.5123C44.8302 27.0134 46.1927 27.8644 47.3024 28.9954C48.4121 30.1264 49.2372 31.5048 49.7096 33.0172C50.1821 34.5296 50.2884 36.1326 50.0198 37.6941C49.7513 39.2557 49.1155 40.731 48.1649 41.9986" stroke="#FF6B6B" stroke-width="1.5" stroke-linecap="round" stroke-linejoin="round"/>
<path d="M34.9224 40.2408L39.165 35.998L43.4076 40.2408" stroke="#FF6B6B" stroke-width="1.5" stroke-linecap="round" stroke-linejoin="round"/>
<path d="M119.165 192L39.1646 35.998" stroke="#FF6B6B" stroke-width="1.5" stroke-linecap="round" stroke-linejoin="round"/>
</g>
<defs>
<clipPath id="clip0_1500_516">
<rect width="32" height="32" fill="white" transform="translate(20.1665 20)"/>
</clipPath>
</defs>
</svg>
