<svg width="73" height="72" viewBox="0 0 73 72" fill="none" xmlns="http://www.w3.org/2000/svg">
<rect x="0.5" width="72" height="72" rx="36" fill="#F0FDF4"/>
<g clip-path="url(#clip0_1500_537)">
<path opacity="0.2" d="M27.3076 45.1924C26.1571 44.0419 26.9202 41.6265 26.3346 40.2111C25.7275 38.744 23.5 37.5631 23.5 36C23.5 34.4368 25.7276 33.256 26.3346 31.7888C26.9202 30.3735 26.1571 27.9581 27.3076 26.8076C28.4581 25.6571 30.8735 26.4202 32.2889 25.8346C33.756 25.2275 34.9369 23 36.5 23C38.0632 23 39.244 25.2276 40.7112 25.8346C42.1265 26.4202 44.5419 25.6571 45.6924 26.8076C46.8429 27.9581 46.0798 30.3735 46.6654 31.7889C47.2725 33.256 49.5 34.4369 49.5 36C49.5 37.5632 47.2724 38.744 46.6654 40.2112C46.0798 41.6265 46.8429 44.0419 45.6924 45.1924C44.5419 46.3429 42.1265 45.5798 40.7111 46.1654C39.244 46.7725 38.0631 49 36.5 49C34.9368 49 33.756 46.7724 32.2888 46.1654C30.8735 45.5798 28.4581 46.3429 27.3076 45.1924Z" fill="#16A34A"/>
<path d="M27.3076 45.1924C26.1571 44.0419 26.9202 41.6265 26.3346 40.2111C25.7275 38.744 23.5 37.5631 23.5 36C23.5 34.4368 25.7276 33.256 26.3346 31.7888C26.9202 30.3735 26.1571 27.9581 27.3076 26.8076C28.4581 25.6571 30.8735 26.4202 32.2889 25.8346C33.756 25.2275 34.9369 23 36.5 23C38.0632 23 39.244 25.2276 40.7112 25.8346C42.1265 26.4202 44.5419 25.6571 45.6924 26.8076C46.8429 27.9581 46.0798 30.3735 46.6654 31.7889C47.2725 33.256 49.5 34.4369 49.5 36C49.5 37.5632 47.2724 38.744 46.6654 40.2112C46.0798 41.6265 46.8429 44.0419 45.6924 45.1924C44.5419 46.3429 42.1265 45.5798 40.7111 46.1654C39.244 46.7725 38.0631 49 36.5 49C34.9368 49 33.756 46.7724 32.2888 46.1654C30.8735 45.5798 28.4581 46.3429 27.3076 45.1924Z" stroke="#16A34A" stroke-width="1.5" stroke-linecap="round" stroke-linejoin="round"/>
<path d="M42 33L34.6666 40L31 36.5" stroke="#16A34A" stroke-width="1.5" stroke-linecap="round" stroke-linejoin="round"/>
</g>
<defs>
<clipPath id="clip0_1500_537">
<rect width="32" height="32" fill="white" transform="translate(20.5 20)"/>
</clipPath>
</defs>
</svg>
