<svg width="73" height="72" viewBox="0 0 73 72" fill="none" xmlns="http://www.w3.org/2000/svg">
<rect x="0.833496" width="72" height="72" rx="36" fill="#FEF3E7"/>
<g clip-path="url(#clip0_1500_528)">
<path fill-rule="evenodd" clip-rule="evenodd" d="M34.8333 25.3334C32.5348 25.3334 30.3304 26.2465 28.7051 27.8718C27.0798 29.4972 26.1667 31.7016 26.1667 34.0001C26.1667 36.2986 27.0798 38.503 28.7051 40.1284C30.3304 41.7537 32.5348 42.6668 34.8333 42.6668C37.1319 42.6668 39.3363 41.7537 40.9616 40.1284C42.5869 38.503 43.5 36.2986 43.5 34.0001C43.5 31.7016 42.5869 29.4972 40.9616 27.8718C39.3363 26.2465 37.1319 25.3334 34.8333 25.3334ZM23.5 34.0001C23.5002 32.1929 23.9325 30.4119 24.7609 28.8058C25.5894 27.1996 26.7899 25.8149 28.2623 24.7671C29.7348 23.7193 31.4365 23.0388 33.2254 22.7824C35.0143 22.526 36.8386 22.7011 38.5461 23.2931C40.2536 23.8852 41.7947 24.877 43.041 26.1857C44.2872 27.4945 45.2024 29.0824 45.7101 30.8168C46.2179 32.5512 46.3035 34.3819 45.9599 36.1561C45.6162 37.9304 44.8533 39.5967 43.7347 41.0161L48.604 45.8854C48.8469 46.1369 48.9813 46.4737 48.9782 46.8233C48.9752 47.1729 48.835 47.5073 48.5878 47.7545C48.3405 48.0017 48.0061 48.142 47.6565 48.145C47.3069 48.148 46.9701 48.0136 46.7187 47.7708L41.8493 42.9014C40.1782 44.2188 38.1699 45.039 36.0543 45.2682C33.9387 45.4975 31.8014 45.1265 29.8868 44.1977C27.9722 43.269 26.3578 41.8199 25.2283 40.0165C24.0988 38.2131 23.4999 36.128 23.5 34.0001ZM33.5 29.3334C33.5 28.9798 33.6405 28.6407 33.8905 28.3906C34.1406 28.1406 34.4797 28.0001 34.8333 28.0001C36.4246 28.0001 37.9508 28.6322 39.076 29.7575C40.2012 30.8827 40.8333 32.4088 40.8333 34.0001C40.8333 34.3537 40.6929 34.6929 40.4428 34.9429C40.1928 35.193 39.8536 35.3334 39.5 35.3334C39.1464 35.3334 38.8072 35.193 38.5572 34.9429C38.3071 34.6929 38.1667 34.3537 38.1667 34.0001C38.1667 33.116 37.8155 32.2682 37.1904 31.6431C36.5652 31.018 35.7174 30.6668 34.8333 30.6668C34.4797 30.6668 34.1406 30.5263 33.8905 30.2762C33.6405 30.0262 33.5 29.687 33.5 29.3334Z" fill="#CE7319"/>
</g>
<defs>
<clipPath id="clip0_1500_528">
<rect width="32" height="32" fill="white" transform="translate(20.8335 20)"/>
</clipPath>
</defs>
</svg>
